<svg width="32" height="32" xmlns="http://www.w3.org/2000/svg">

 <g>
  <title>background</title>
  <rect fill="none" id="canvas_background" height="402" width="582" y="-1" x="-1"/>
 </g>
 <g>
  <title>Layer 1</title>
  <path id="svg_1" fill-rule="evenodd" fill="#ff0000" d="m29.98,6.819c-0.096,-1.57 -1.387,-2.816 -2.98,-2.816l-3,0l0,-1l0,-0.002c0,-1.657 -1.344,-3 -3,-3l-10,0c-1.657,0 -3,1.343 -3,3l0,0.001l0,1l-3,0c-1.595,0 -2.885,1.246 -2.981,2.816l-0.019,0l0,1.183l0,1c0,1.104 0.896,2 2,2l0,0l0,17c0,2.209 1.791,4 4,4l16,0c2.209,0 4,-1.791 4,-4l0,-17l0,0c1.104,0 2,-0.896 2,-2l0,-1l0,-1.182l-0.02,0zm-19.98,-3.817c0,-0.553 0.447,-1 1,-1l10,0c0.553,0 1,0.447 1,1l0,1l-12,0l0,-1zm16,25c0,1.102 -0.898,2 -2,2l-16,0c-1.103,0 -2,-0.898 -2,-2l0,-17l20,0l0,17zm2,-20.001l0,1l-24,0l0,-1l0,-0.999c0,-0.553 0.447,-1 1,-1l22,0c0.553,0 1,0.447 1,1l0,0.999z" clip-rule="evenodd"/>
  <path id="svg_2" fill-rule="evenodd" fill="#ff0202" d="m9,28.006l2,0c0.553,0 1,-0.447 1,-1l0,-13c0,-0.553 -0.447,-1 -1,-1l-2,0c-0.553,0 -1,0.447 -1,1l0,13c0,0.553 0.447,1 1,1zm0,-14.001l2,0l0,13l-2,0l0,-13z" clip-rule="evenodd"/>
  <path id="svg_3" fill-rule="evenodd" fill="#ff0000" d="m15,28.006l2,0c0.553,0 1,-0.447 1,-1l0,-13c0,-0.553 -0.447,-1 -1,-1l-2,0c-0.553,0 -1,0.447 -1,1l0,13c0,0.553 0.447,1 1,1zm0,-14.001l2,0l0,13l-2,0l0,-13z" clip-rule="evenodd"/>
  <path id="svg_4" fill-rule="evenodd" fill="#ff0000" d="m21,28.006l2,0c0.553,0 1,-0.447 1,-1l0,-13c0,-0.553 -0.447,-1 -1,-1l-2,0c-0.553,0 -1,0.447 -1,1l0,13c0,0.553 0.447,1 1,1zm0,-14.001l2,0l0,13l-2,0l0,-13z" clip-rule="evenodd"/>
 </g>
</svg>